<svg xmlns="http://www.w3.org/2000/svg" xmlns:xlink="http://www.w3.org/1999/xlink" viewBox="0,0,256,256" width="48px" height="48px"><g fill="#000000" fill-rule="nonzero" stroke="none" stroke-width="1" stroke-linecap="butt" stroke-linejoin="miter" stroke-miterlimit="10" stroke-dasharray="" stroke-dashoffset="0" font-family="none" font-weight="none" font-size="none" text-anchor="none" style="mix-blend-mode: normal"><g transform="scale(5.33333,5.33333)"><path d="M34.932,22.478c-1.163,-0.918 -2.726,-1.477 -4.432,-1.478c-1.706,0.001 -3.27,0.56 -4.433,1.478c-1.184,0.935 -1.969,2.252 -2.059,3.747c-0.091,1.536 0.57,2.965 1.732,4.023c1.185,1.076 2.873,1.752 4.761,1.752c1.887,0 3.574,-0.676 4.757,-1.753c1.162,-1.057 1.824,-2.486 1.734,-4.023c-0.09,-1.493 -0.876,-2.811 -2.06,-3.746z"></path><path d="M45.871,25.932c-0.259,-1.823 -0.891,-3.535 -1.861,-5.095c-0.891,-1.433 -2.035,-2.688 -3.397,-3.745l0.002,-0.002l-0.037,-0.012c-0.028,-0.025 -0.05,-0.054 -0.079,-0.078l-14.25,-10.562c-0.86,-0.689 -2.12,-0.552 -2.811,0.313c-0.69,0.862 -0.551,2.121 0.313,2.811l5.988,4.438h-19.239c-1.375,0 -2.5,1.125 -2.5,2.5c0,1.375 1.125,2.5 2.5,2.5h7.154l-14.781,12.602c-1.048,0.898 -1.17,2.478 -0.271,3.525c0.495,0.577 1.195,0.873 1.899,0.873c0.576,0 1.154,-0.198 1.626,-0.602l8.954,-7.675c-0.022,0.807 -0.039,1.538 -0.035,1.761c0,3.516 3.954,12.516 15.636,12.516c8.318,0 15.28,-5 15.28,-13.261c0.072,-0.934 0.041,-1.872 -0.091,-2.807zM39.525,29.153c-0.401,1.087 -1.05,2.104 -1.935,2.992c-1.81,1.82 -4.343,2.85 -7.088,2.854c-2.745,0.005 -5.28,-1.017 -7.091,-2.832c-0.885,-0.885 -1.535,-1.901 -1.937,-2.986c-0.392,-1.065 -0.545,-2.195 -0.444,-3.335c0.098,-1.116 0.432,-2.179 0.971,-3.141c0.529,-0.946 1.257,-1.8 2.154,-2.524c1.76,-1.414 3.999,-2.179 6.345,-2.182c2.346,-0.003 4.584,0.756 6.345,2.164c0.897,0.72 1.624,1.571 2.152,2.515c0.539,0.961 0.874,2.023 0.973,3.138c0.1,1.142 -0.052,2.271 -0.445,3.337z"></path></g></g></svg>