<svg xmlns="http://www.w3.org/2000/svg" xmlns:xlink="http://www.w3.org/1999/xlink" viewBox="0,0,256,256" width="50px" height="50px"><g fill="#ffffff" fill-rule="nonzero" stroke="none" stroke-width="1" stroke-linecap="butt" stroke-linejoin="miter" stroke-miterlimit="10" stroke-dasharray="" stroke-dashoffset="0" font-family="none" font-weight="none" font-size="none" text-anchor="none" style="mix-blend-mode: normal"><g transform="scale(5.12,5.12)"><path d="M24.5625,3.34375c-0.98437,0 -3.07422,0.15234 -5.34375,1.15625c-2.26953,1.00391 -4.72266,2.91797 -6.25,6.34375c-1.15234,2.58203 -0.8125,6.33984 -0.625,9.34375c0.01563,0.22266 0.01953,0.41406 0.03125,0.625c-0.09375,0.04297 -0.01172,0.0625 -0.3125,0.0625c-0.45312,0 -1.05859,-0.14844 -1.8125,-0.5c-0.30078,-0.14062 -0.62109,-0.1875 -0.9375,-0.1875c-0.57422,0 -1.13672,0.17188 -1.625,0.46875c-0.48828,0.29688 -0.95703,0.75781 -1.09375,1.46875c-0.08203,0.4375 0.01172,1.09375 0.4375,1.625c0.42578,0.53125 1.08594,0.96484 2.125,1.375c0.22656,0.08984 0.45703,0.17578 0.6875,0.25c0.46875,0.14844 1.01953,0.30859 1.4375,0.53125c0.41797,0.22266 0.66406,0.48438 0.75,0.6875c0.09375,0.21875 0.12109,0.55859 -0.1875,1.1875c-0.01172,0.01953 -0.02344,0.04297 -0.03125,0.0625c-0.00391,0.01563 -0.01953,0.02734 -0.03125,0.0625c-0.125,0.28125 -2.86328,6.25 -8.5625,7.1875c-0.73437,0.12109 -1.25781,0.76172 -1.21875,1.5c0.01172,0.21484 0.08203,0.44531 0.15625,0.625c0.27734,0.65234 0.87109,1.13281 1.84375,1.5625c0.89844,0.39844 2.29688,0.75 4.15625,1.0625c0.04688,0.12891 0.10938,0.37109 0.1875,0.71875c0,0.00781 -0.00391,0.02344 0,0.03125c0.07031,0.32422 0.13672,0.67969 0.25,1.0625c0.11328,0.39063 0.40234,0.77344 0.75,0.96875c0.34766,0.19531 0.67578,0.21875 0.875,0.21875c0.41406,0 0.75781,-0.08594 1.125,-0.15625c0.60547,-0.11719 1.33594,-0.25 2.28125,-0.25c0.52344,0 1.07031,0.03516 1.625,0.125c0.94922,0.15625 1.88281,0.77344 3,1.5625c1.61719,1.14453 3.55859,2.53125 6.46875,2.53125c0.05078,0 0.10547,-0.02734 0.15625,-0.03125c0.05078,0.00391 0.10547,0 0.15625,0c0.08203,0.00391 0.16797,0.03125 0.25,0.03125c2.91016,0 4.84766,-1.38672 6.46875,-2.53125c1.11328,-0.78906 2.05078,-1.40625 3,-1.5625c0.55469,-0.08984 1.10156,-0.125 1.625,-0.125c0.91406,0 1.63672,0.11719 2.3125,0.25c0.42969,0.08594 0.75781,0.125 1.09375,0.125h0.0625c0.30859,0 0.66406,-0.08594 0.96875,-0.3125c0.30469,-0.22656 0.50781,-0.55078 0.59375,-0.84375c0.11328,-0.38281 0.17578,-0.75 0.25,-1.09375c0.08203,-0.38281 0.14453,-0.58984 0.1875,-0.71875c1.85938,-0.3125 3.25781,-0.66406 4.15625,-1.0625c0.97266,-0.42969 1.56641,-0.91406 1.84375,-1.5625c0.08203,-0.1875 0.14453,-0.41016 0.15625,-0.625c0.03906,-0.73437 -0.48828,-1.37891 -1.21875,-1.5c-2.875,-0.47266 -4.98437,-2.20312 -6.40625,-3.875c-1.41406,-1.66406 -2.11719,-3.25391 -2.15625,-3.34375c0,-0.01172 0,-0.01953 0,-0.03125c-0.00781,-0.01953 -0.01953,-0.04297 -0.03125,-0.0625c-0.3125,-0.62891 -0.3125,-0.96484 -0.21875,-1.1875c0.08594,-0.20312 0.33203,-0.46484 0.75,-0.6875c0.41797,-0.22266 0.96484,-0.38281 1.4375,-0.53125c0.23438,-0.07422 0.46875,-0.16406 0.6875,-0.25c0.91016,-0.35937 1.53516,-0.73437 1.96875,-1.1875c0.43359,-0.45312 0.63281,-1.01562 0.625,-1.5c-0.01953,-1.02344 -0.78125,-1.70312 -1.65625,-2.03125l-0.03125,-0.03125c-0.00781,-0.00391 -0.02344,0.00391 -0.03125,0c-0.35937,-0.14453 -0.73828,-0.21875 -1.125,-0.21875c-0.26172,0 -0.625,0.01172 -1.0625,0.21875c-0.67969,0.32031 -1.25,0.47656 -1.6875,0.5c-0.02734,0 -0.00391,0 -0.03125,0c-0.02734,0 -0.00781,0.00391 -0.03125,0c-0.12891,-0.01562 -0.08984,-0.03906 -0.15625,-0.0625c0.01172,-0.17187 0.01953,-0.32422 0.03125,-0.5v-0.125c0.19141,-3.00391 0.52734,-6.75781 -0.625,-9.34375c-1.52734,-3.42578 -3.97656,-5.37109 -6.25,-6.375c-2.27344,-1.00391 -4.35547,-1.125 -5.34375,-1.125h-0.09375c-0.01172,0 -0.01953,0 -0.03125,0zM24.5625,5.34375h0.875c0.80078,0 2.61719,0.125 4.53125,0.96875c1.91406,0.84375 3.92969,2.37891 5.25,5.34375c0.75,1.67969 0.62891,5.40625 0.4375,8.40625v0.125c-0.02734,0.41797 -0.07422,0.82422 -0.09375,1.21875c-0.00781,0.28125 0.10547,0.55469 0.3125,0.75c0.15625,0.16016 0.8125,0.67578 1.90625,0.71875c0.01172,0 0.01953,0 0.03125,0c0.01172,0 0.01953,0 0.03125,0c0.80859,-0.03125 1.65625,-0.27734 2.53125,-0.6875c0.02344,-0.01172 0.13281,-0.03125 0.21875,-0.03125c0.125,0 0.28906,0.03125 0.375,0.0625c0.00781,0.00391 0.02344,-0.00391 0.03125,0c0.01953,0.01172 0.04297,0.02344 0.0625,0.03125c0.23438,0.08203 0.34375,0.17578 0.375,0.21875c0.00781,0.00781 -0.00391,0.02734 0,0.03125c-0.01172,0.01953 -0.02344,0.01953 -0.0625,0.0625c-0.14453,0.15234 -0.54297,0.42578 -1.28125,0.71875c-0.12109,0.04688 -0.30469,0.11719 -0.53125,0.1875c-0.47266,0.14844 -1.14453,0.35156 -1.78125,0.6875c-0.63672,0.33594 -1.30859,0.83203 -1.65625,1.65625c-0.37109,0.87109 -0.21484,1.82813 0.21875,2.75c0.00391,0.01563 -0.00391,0.01953 0,0.03125c0.01563,0.04297 0.03125,0.06641 0.03125,0.0625c0.08984,0.20703 0.84766,1.97266 2.46875,3.875c1.45703,1.71094 3.67188,3.48047 6.625,4.25c-0.125,0.08203 -0.03906,0.07813 -0.28125,0.1875c-0.71875,0.31641 -1.95312,0.65625 -3.96875,0.96875c-0.57031,0.08594 -0.99609,0.625 -1.15625,1c-0.16016,0.375 -0.24219,0.74609 -0.34375,1.21875c-0.04687,0.21875 -0.10547,0.41797 -0.15625,0.625c-0.13672,-0.01172 -0.25,-0.01172 -0.5,-0.0625c-0.72656,-0.14062 -1.60547,-0.28125 -2.6875,-0.28125c-0.64062,0 -1.28125,0.04688 -1.9375,0.15625c-1.53516,0.25781 -2.73047,1.11719 -3.84375,1.90625c-1.625,1.14453 -3.00781,2.15625 -5.3125,2.15625c-0.09375,0 -0.1875,0.00391 -0.28125,0c-0.04297,-0.00391 -0.08203,-0.00391 -0.125,0c-0.03906,0.00391 -0.10937,0 -0.15625,0c-2.30469,0 -3.69531,-1.01172 -5.3125,-2.15625c-1.11719,-0.78906 -2.30859,-1.65234 -3.84375,-1.90625c-0.65625,-0.10937 -1.29687,-0.15625 -1.9375,-0.15625c-1.15234,0 -2.08203,0.16406 -2.6875,0.28125c-0.24219,0.04688 -0.33203,0.07422 -0.46875,0.09375c-0.05469,-0.21875 -0.13672,-0.42578 -0.1875,-0.65625c-0.09375,-0.42969 -0.15625,-0.80859 -0.3125,-1.1875c-0.07812,-0.1875 -0.1875,-0.39453 -0.375,-0.59375c-0.1875,-0.19922 -0.46484,-0.35937 -0.78125,-0.40625c-2.01172,-0.3125 -3.28125,-0.68359 -4,-1c-0.25,-0.10937 -0.15625,-0.10156 -0.28125,-0.1875c6.23047,-1.60937 8.94141,-7.77344 9.09375,-8.125c0.01172,-0.02344 0.01953,-0.03906 0.03125,-0.0625c0.00391,-0.01172 -0.00391,-0.01562 0,-0.03125c0.43359,-0.92187 0.58984,-1.87891 0.21875,-2.75c-0.35156,-0.82422 -1.01953,-1.32031 -1.65625,-1.65625c-0.63672,-0.33594 -1.27734,-0.53906 -1.75,-0.6875c-0.23047,-0.07422 -0.44531,-0.14062 -0.5625,-0.1875c-0.83984,-0.33203 -1.20703,-0.64844 -1.3125,-0.78125c0,0.01953 -0.02344,-0.06641 0.125,-0.15625c0.16406,-0.09766 0.45313,-0.15625 0.59375,-0.15625c0.07813,0 0.07422,0.00391 0.0625,0c0.9375,0.4375 1.82813,0.6875 2.6875,0.6875c1.1875,0 1.89844,-0.51562 2.09375,-0.71875c0.19531,-0.19922 0.29688,-0.47266 0.28125,-0.75c-0.02344,-0.4375 -0.06641,-0.88281 -0.09375,-1.34375c-0.1875,-3.00391 -0.3125,-6.72656 0.4375,-8.40625c1.32031,-2.96094 3.30859,-4.5 5.21875,-5.34375c1.91016,-0.84375 3.76172,-0.96875 4.5625,-0.96875z"></path></g></g></svg>